<svg xmlns="http://www.w3.org/2000/svg" width="592" height="160" class="svgbob"><style>.svgbob line, .svgbob path, .svgbob circle, .svgbob rect, .svgbob polygon {
    stroke: black;
    stroke-width: 2;
    stroke-opacity: 1;
    fill-opacity: 1;
    stroke-linecap: round;
    stroke-linejoin: miter;
}
.svgbob text {
    white-space: pre;
    fill: black;
    font-family: Iosevka Fixed, monospace;
    font-size: 14px;
}
.svgbob rect.backdrop {
    stroke: none;
    fill: white;
}
.svgbob .broken {
    stroke-dasharray: 8;
}
.svgbob .filled {
    fill: black;
}
.svgbob .bg_filled {
    fill: white;
    stroke-width: 1;
}
.svgbob .nofill {
    fill: white;
}
.svgbob .end_marked_arrow {
    marker-end: url(#arrow);
}
.svgbob .start_marked_arrow {
    marker-start: url(#arrow);
}
.svgbob .end_marked_diamond {
    marker-end: url(#diamond);
}
.svgbob .start_marked_diamond {
    marker-start: url(#diamond);
}
.svgbob .end_marked_circle {
    marker-end: url(#circle);
}
.svgbob .start_marked_circle {
    marker-start: url(#circle);
}
.svgbob .end_marked_open_circle {
    marker-end: url(#open_circle);
}
.svgbob .start_marked_open_circle {
    marker-start: url(#open_circle);
}
.svgbob .end_marked_big_open_circle {
    marker-end: url(#big_open_circle);
}
.svgbob .start_marked_big_open_circle {
    marker-start: url(#big_open_circle);
}<!--separator--></style><defs><marker id="arrow" viewBox="-2 -2 8 8" refX="4" refY="2" markerWidth="7" markerHeight="7" orient="auto-start-reverse"><polygon points="0,0 0,4 4,2 0,0"></polygon></marker><marker id="diamond" viewBox="-2 -2 8 8" refX="4" refY="2" markerWidth="7" markerHeight="7" orient="auto-start-reverse"><polygon points="0,2 2,0 4,2 2,4 0,2"></polygon></marker><marker id="circle" viewBox="0 0 8 8" refX="4" refY="4" markerWidth="7" markerHeight="7" orient="auto-start-reverse"><circle cx="4" cy="4" r="2" class="filled"></circle></marker><marker id="open_circle" viewBox="0 0 8 8" refX="4" refY="4" markerWidth="7" markerHeight="7" orient="auto-start-reverse"><circle cx="4" cy="4" r="2" class="bg_filled"></circle></marker><marker id="big_open_circle" viewBox="0 0 8 8" refX="4" refY="4" markerWidth="7" markerHeight="7" orient="auto-start-reverse"><circle cx="4" cy="4" r="3" class="bg_filled"></circle></marker></defs><rect class="backdrop" x="0" y="0" width="592" height="160"></rect><rect x="100" y="64" width="16" height="16" class="solid nofill" rx="0"></rect><rect x="468" y="64" width="16" height="32" class="solid nofill" rx="0"></rect><g><line x1="4" y1="48" x2="28" y2="48" class="solid"></line><line x1="4" y1="48" x2="4" y2="144" class="solid"></line><line x1="28" y1="48" x2="28" y2="80" class="solid"></line><line x1="4" y1="144" x2="28" y2="144" class="solid"></line><line x1="44" y1="48" x2="68" y2="48" class="solid"></line><line x1="44" y1="48" x2="44" y2="80" class="solid"></line><line x1="68" y1="48" x2="68" y2="144" class="solid"></line><line x1="28" y1="80" x2="44" y2="80" class="solid"></line><line x1="28" y1="128" x2="44" y2="128" class="solid"></line><line x1="28" y1="128" x2="28" y2="144" class="solid"></line><line x1="44" y1="128" x2="44" y2="144" class="solid"></line><line x1="44" y1="144" x2="68" y2="144" class="solid"></line></g><g><line x1="76" y1="48" x2="140" y2="48" class="solid"></line><line x1="76" y1="48" x2="76" y2="144" class="solid"></line><line x1="140" y1="48" x2="140" y2="144" class="solid"></line><line x1="76" y1="144" x2="100" y2="144" class="solid"></line><line x1="100" y1="128" x2="116" y2="128" class="solid"></line><line x1="100" y1="128" x2="100" y2="144" class="solid"></line><line x1="116" y1="128" x2="116" y2="144" class="solid"></line><line x1="116" y1="144" x2="140" y2="144" class="solid"></line></g><g><line x1="148" y1="48" x2="172" y2="48" class="solid"></line><line x1="148" y1="48" x2="148" y2="144" class="solid"></line><line x1="172" y1="48" x2="172" y2="96" class="solid"></line><line x1="188" y1="48" x2="212" y2="48" class="solid"></line><line x1="188" y1="48" x2="188" y2="96" class="solid"></line><line x1="212" y1="48" x2="212" y2="144" class="solid"></line><line x1="172" y1="96" x2="188" y2="96" class="solid"></line><line x1="148" y1="144" x2="212" y2="144" class="solid"></line></g><g><line x1="220" y1="48" x2="284" y2="48" class="solid"></line><line x1="220" y1="48" x2="220" y2="112" class="solid"></line><line x1="284" y1="48" x2="284" y2="80" class="solid"></line><line x1="236" y1="80" x2="284" y2="80" class="solid"></line><line x1="236" y1="80" x2="236" y2="96" class="solid"></line><line x1="236" y1="96" x2="284" y2="96" class="solid"></line><line x1="220" y1="112" x2="268" y2="112" class="solid"></line><line x1="284" y1="96" x2="284" y2="144" class="solid"></line><line x1="220" y1="128" x2="268" y2="128" class="solid"></line><line x1="268" y1="112" x2="268" y2="128" class="solid"></line><line x1="220" y1="128" x2="220" y2="144" class="solid"></line><line x1="220" y1="144" x2="284" y2="144" class="solid"></line></g><g><line x1="292" y1="48" x2="308" y2="48" class="solid"></line><line x1="292" y1="48" x2="292" y2="144" class="solid"></line><line x1="308" y1="48" x2="308" y2="80" class="solid"></line><line x1="292" y1="144" x2="316" y2="144" class="solid"></line><line x1="340" y1="48" x2="356" y2="48" class="solid"></line><line x1="340" y1="48" x2="340" y2="80" class="solid"></line><line x1="356" y1="48" x2="356" y2="144" class="solid"></line><line x1="316" y1="128" x2="332" y2="128" class="solid"></line><line x1="316" y1="128" x2="316" y2="144" class="solid"></line><line x1="332" y1="128" x2="332" y2="144" class="solid"></line><line x1="332" y1="144" x2="356" y2="144" class="solid"></line></g><g><line x1="364" y1="48" x2="428" y2="48" class="solid"></line><line x1="364" y1="48" x2="364" y2="144" class="solid"></line><line x1="428" y1="48" x2="428" y2="80" class="solid"></line><line x1="396" y1="80" x2="428" y2="80" class="solid"></line><line x1="396" y1="80" x2="396" y2="96" class="solid"></line><line x1="396" y1="96" x2="428" y2="96" class="solid"></line><line x1="364" y1="144" x2="428" y2="144" class="solid"></line><line x1="396" y1="112" x2="428" y2="112" class="solid"></line><line x1="428" y1="96" x2="428" y2="112" class="solid"></line><line x1="396" y1="112" x2="396" y2="128" class="solid"></line><line x1="396" y1="128" x2="428" y2="128" class="solid"></line><line x1="428" y1="128" x2="428" y2="144" class="solid"></line></g><g><line x1="436" y1="48" x2="492" y2="48" class="solid"></line><line x1="436" y1="48" x2="436" y2="144" class="solid"></line><line x1="492" y1="48" x2="492" y2="96" class="solid"></line><line x1="492" y1="96" x2="508" y2="96" class="solid"></line><line x1="508" y1="96" x2="508" y2="144" class="solid"></line><line x1="468" y1="112" x2="492" y2="112" class="solid"></line><line x1="468" y1="112" x2="468" y2="144" class="solid"></line><line x1="492" y1="112" x2="492" y2="144" class="solid"></line><line x1="436" y1="144" x2="468" y2="144" class="solid"></line><line x1="492" y1="144" x2="508" y2="144" class="solid"></line></g><g><line x1="516" y1="48" x2="548" y2="48" class="solid"></line><line x1="516" y1="48" x2="516" y2="144" class="solid"></line><line x1="548" y1="48" x2="548" y2="80" class="solid"></line><line x1="516" y1="144" x2="548" y2="144" class="solid"></line><line x1="564" y1="48" x2="580" y2="48" class="solid"></line><line x1="564" y1="48" x2="564" y2="80" class="solid"></line><line x1="580" y1="48" x2="580" y2="96" class="solid"></line><line x1="548" y1="80" x2="564" y2="80" class="solid"></line><line x1="564" y1="96" x2="580" y2="96" class="solid"></line><line x1="564" y1="96" x2="564" y2="112" class="solid"></line><line x1="564" y1="112" x2="580" y2="112" class="solid"></line><line x1="580" y1="112" x2="580" y2="144" class="solid"></line><line x1="548" y1="128" x2="564" y2="128" class="solid"></line><line x1="548" y1="128" x2="548" y2="144" class="solid"></line><line x1="564" y1="128" x2="564" y2="144" class="solid"></line><line x1="564" y1="144" x2="580" y2="144" class="solid"></line></g><g><line x1="316" y1="64" x2="332" y2="64" class="solid"></line><line x1="316" y1="64" x2="316" y2="80" class="solid"></line><line x1="332" y1="64" x2="332" y2="80" class="solid"></line></g></svg>